<svg width="1140" height="448" viewBox="0 0 1140 448" fill="none" xmlns="http://www.w3.org/2000/svg">
<path d="M0 8C0 3.58172 3.58172 0 8 0H1132C1136.42 0 1140 3.58172 1140 8V440C1140 444.418 1136.42 448 1132 448H8.00001C3.58173 448 0 444.418 0 440V8Z" fill="#F3F5FB"/>
<path d="M583.333 212.333H556.666V235.667L572.153 220.177C572.466 219.864 572.889 219.689 573.331 219.689C573.773 219.689 574.197 219.864 574.51 220.177L583.333 229.017V212.333ZM553.333 210.655C553.336 210.217 553.511 209.798 553.821 209.489C554.13 209.179 554.549 209.003 554.986 209H585.013C585.926 209 586.666 209.742 586.666 210.655V237.345C586.663 237.783 586.488 238.202 586.179 238.511C585.869 238.821 585.451 238.997 585.013 239H554.986C554.548 239 554.127 238.825 553.817 238.515C553.507 238.204 553.333 237.784 553.333 237.345V210.655ZM563.333 222.333C562.449 222.333 561.601 221.982 560.976 221.357C560.351 220.732 560 219.884 560 219C560 218.116 560.351 217.268 560.976 216.643C561.601 216.018 562.449 215.667 563.333 215.667C564.217 215.667 565.065 216.018 565.69 216.643C566.315 217.268 566.666 218.116 566.666 219C566.666 219.884 566.315 220.732 565.69 221.357C565.065 221.982 564.217 222.333 563.333 222.333Z" fill="#6B7094"/>
</svg>
